<?xml version="1.0" encoding="UTF-8"?>
<svg xmlns="http://www.w3.org/2000/svg" xmlns:xlink="http://www.w3.org/1999/xlink" width="64pt" height="64pt" viewBox="0 0 64 64" version="1.1">
<g id="surface25345343">
<path style=" stroke:none;fill-rule:nonzero;fill:rgb(100%,100%,100%);fill-opacity:1;" d="M 7.5 62 C 7.5 59.25 9.75 57 12.5 57 C 12.5 54.25 14.75 52 17.5 52 L 17.5 62 Z M 57.648438 41.601562 L 35 19 L 12.351562 41.601562 L 8.148438 37.398438 L 35 10.5 L 61.851562 37.398438 Z M 57.648438 41.601562 "/>
<path style=" stroke:none;fill-rule:nonzero;fill:rgb(90.588235%,29.803922%,23.529412%);fill-opacity:1;" d="M 52.5 58.5 L 52.5 36.199219 L 35 19 L 17.5 36.5 L 17.5 62 L 55.5 62 L 55.5 61.5 C 55.5 59.851562 54.148438 58.5 52.5 58.5 Z M 52.5 58.5 "/>
<path style=" stroke:none;fill-rule:nonzero;fill:rgb(26.666667%,29.411765%,32.941176%);fill-opacity:1;" d="M 29.5 40 L 40.5 40 L 40.5 62 L 29.5 62 Z M 29.5 40 "/>
<path style=" stroke:none;fill-rule:nonzero;fill:rgb(26.666667%,29.411765%,32.941176%);fill-opacity:1;" d="M 40.5 63.5 L 29.5 63.5 C 28.648438 63.5 28 62.851562 28 62 L 28 40 C 28 39.148438 28.648438 38.5 29.5 38.5 L 40.5 38.5 C 41.351562 38.5 42 39.148438 42 40 L 42 62 C 42 62.851562 41.351562 63.5 40.5 63.5 Z M 31 60.5 L 39 60.5 L 39 41.5 L 31 41.5 Z M 31 60.5 "/>
<path style=" stroke:none;fill-rule:nonzero;fill:rgb(100%,100%,100%);fill-opacity:1;" d="M 32.5 50.5 C 31.671875 50.5 31 51.171875 31 52 C 31 52.828125 31.671875 53.5 32.5 53.5 C 33.328125 53.5 34 52.828125 34 52 C 34 51.171875 33.328125 50.5 32.5 50.5 Z M 32.5 50.5 "/>
<path style=" stroke:none;fill-rule:nonzero;fill:rgb(26.666667%,29.411765%,32.941176%);fill-opacity:1;" d="M 62.949219 36.300781 L 36.050781 9.449219 C 35.5 8.898438 34.5 8.898438 33.949219 9.449219 L 7.050781 36.300781 C 6.449219 36.898438 6.449219 37.851562 7.050781 38.398438 L 11.300781 42.648438 C 11.601562 42.949219 11.949219 43.101562 12.351562 43.101562 C 12.75 43.101562 13.148438 42.949219 13.398438 42.648438 L 35 21.101562 L 51 37.101562 L 51 57.25 C 49.550781 57.75 48.449219 59 48.101562 60.5 L 19 60.5 L 19 47 C 19 46.148438 18.351562 45.5 17.5 45.5 C 16.648438 45.5 16 46.148438 16 47 L 16 50.699219 C 13.550781 51.300781 11.648438 53.199219 11.148438 55.648438 C 8.699219 56.148438 6.75 58.101562 6.199219 60.5 L 2 60.5 C 1.148438 60.5 0.5 61.148438 0.5 62 C 0.5 62.851562 1.148438 63.5 2 63.5 L 49.5 63.5 C 50.351562 63.5 51 62.851562 51 62 L 51 61.5 C 51 60.648438 51.648438 60 52.5 60 C 53.351562 60 54 60.648438 54 61.5 L 54 62 C 54 62.851562 54.648438 63.5 55.5 63.5 L 57 63.5 C 57.851562 63.5 58.5 62.851562 58.5 62 C 58.5 61.148438 57.851562 60.5 57 60.5 L 56.898438 60.5 C 56.550781 59 55.449219 57.75 54 57.25 L 54 40.101562 L 56.550781 42.648438 C 56.851562 42.949219 57.199219 43.101562 57.601562 43.101562 C 58 43.101562 58.398438 42.949219 58.648438 42.648438 L 62.898438 38.398438 C 63.5 37.851562 63.5 36.898438 62.949219 36.300781 Z M 12.5 58.5 C 13.351562 58.5 14 57.851562 14 57 C 14 55.601562 14.800781 54.398438 16 53.851562 L 16 60.5 L 9.351562 60.5 C 9.898438 59.300781 11.101562 58.5 12.5 58.5 Z M 57.648438 39.5 L 36.050781 17.949219 C 35.75 17.648438 35.398438 17.5 35 17.5 C 34.601562 17.5 34.25 17.648438 33.949219 17.949219 L 12.351562 39.5 L 10.25 37.398438 L 35 12.648438 L 59.75 37.398438 Z M 62 60.5 C 61.171875 60.5 60.5 61.171875 60.5 62 C 60.5 62.828125 61.171875 63.5 62 63.5 C 62.828125 63.5 63.5 62.828125 63.5 62 C 63.5 61.171875 62.828125 60.5 62 60.5 Z M 62 60.5 "/>
</g>
</svg>
